<svg fill="#000000" height="800px" width="800px" 
	 viewBox="0 0 511.999 511.999">
<path d="M393.262,65.329c-7.82-7.861-17.761-12.753-28.483-14.113l-0.013-11.483c-0.013-10.628-4.163-20.615-11.689-28.12
			C345.567,4.123,335.593,0,324.987,0c-0.021,0-0.04,0-0.061,0c-13.336,0.019-25.15,6.635-32.357,16.748
			c-0.882-1.083-1.824-2.127-2.826-3.127c-7.525-7.506-17.493-11.673-28.15-11.615c-12.654,0.019-24.062,6.062-31.369,15.464
			c-7.288-9.623-18.835-15.802-31.732-15.802c-0.019,0-0.041,0-0.061,0c-16.091,0.024-29.971,9.651-36.208,23.441
			c-6.168-5.029-14.048-7.986-22.603-7.986c-0.018,0-0.037,0-0.055,0c-19.664,0.029-35.644,16.051-35.621,35.715l0.053,47.078
			c0.004,3.652,0.559,7.245,1.651,10.7l0.036,69.989c0.002,4.485,3.638,8.119,8.123,8.119c0.001,0,0.002,0,0.004,0
			c4.486-0.002,8.121-3.641,8.119-8.127l-0.025-49.71c5.268,3.034,11.306,4.766,17.593,4.799l0.227,0.001
			c12.043-0.018,22.72-6.026,29.203-15.196c7.337,8.119,17.91,13.157,29.427,13.218l0.253,0.001
			c12.644-0.02,24.047-5.969,31.382-15.338c7.286,9.525,18.74,15.605,31.525,15.674h0.252c3.551-0.005,7.065-0.476,10.445-1.397
			c0.367-0.1,0.716-0.232,1.056-0.377c2.521,0.56,5.094,0.838,7.704,0.839l26.28-0.16c0.03,0,0.061,0,0.09,0
			c3.889,0,7.577,1.539,10.395,4.339c2.462,2.448,4.02,5.591,4.508,9.025l-18.673,26.435c-0.136,0.193-0.263,0.392-0.382,0.596
			c-14.527,24.922-16.308,55.955-4.762,83.015c1.317,3.087,4.318,4.938,7.475,4.938c1.064,0,2.143-0.21,3.183-0.654
			c4.127-1.761,6.044-6.533,4.284-10.66c-9.352-21.917-7.935-48,3.681-68.16l20.117-28.476c0.967-1.371,1.488-3.009,1.488-4.688
			c0-8.696-3.362-16.828-9.467-22.895c-5.885-5.849-13.636-9.062-21.845-9.062c-0.064,0-0.128,0-0.193,0l-26.28,0.16
			c-2.041,0.012-4.052-0.317-5.991-0.983c-0.568-0.194-1.123-0.416-1.667-0.665c-0.056-0.026-0.108-0.059-0.165-0.085
			c-1.56-0.732-3.025-1.684-4.386-2.87c-0.029-0.026-0.058-0.053-0.088-0.079c-0.618-0.549-1.211-1.157-1.803-1.84
			c-0.032-0.041-0.069-0.079-0.102-0.119c-0.074-0.088-0.145-0.178-0.223-0.262c-0.026-0.029-0.05-0.061-0.077-0.09
			c-0.037-0.045-0.073-0.09-0.109-0.135c-0.133-0.168-0.262-0.34-0.39-0.513c-0.108-0.165-0.222-0.325-0.341-0.481
			c-0.219-0.314-0.434-0.629-0.635-0.956c-0.013-0.021-0.026-0.041-0.039-0.063c-0.159-0.261-0.302-0.534-0.447-0.805
			c-0.062-0.114-0.126-0.22-0.187-0.339c-0.06-0.128-0.122-0.255-0.188-0.379c-0.093-0.19-0.179-0.386-0.266-0.581
			c-0.145-0.321-0.282-0.644-0.408-0.971c-0.108-0.279-0.221-0.557-0.316-0.84l-0.066-0.195c-0.006-0.021-0.014-0.04-0.021-0.061
			c-0.138-0.425-0.262-0.856-0.367-1.282c-0.022-0.106-0.046-0.212-0.071-0.317c-0.083-0.362-0.158-0.727-0.223-1.095
			c-0.001-0.008-0.003-0.014-0.004-0.022c0-0.001,0-0.001,0-0.002c0-0.001,0-0.002-0.001-0.003
			c-0.002-0.013-0.005-0.027-0.008-0.041v0.004l-0.002-0.012c-0.01-0.05-0.017-0.097-0.027-0.147
			c-0.001-0.003-0.002-0.007-0.002-0.01l-0.005-0.026c0-0.001,0-0.001,0-0.001c-0.073-0.452-0.127-0.908-0.169-1.367
			c0-0.003-0.001-0.005-0.001-0.008l-0.023-0.29c0-0.003,0-0.006,0-0.01c-0.037-0.479-0.066-0.96-0.069-1.449l-0.063-9.701
			l-0.001-0.129c-0.001-5.213,1.952-10.116,5.5-13.806l0.001-0.001c0.001-0.001,0.001-0.001,0.002-0.002
			c0.416-0.433,0.864-0.857,1.332-1.26h0.001c1.144-0.982,2.394-1.808,3.716-2.48c6.022-0.81,35.826-4.395,82.537-3.186
			c0.535,0.11,1.089,0.17,1.656,0.17h1.942c8.69,0,16.907,3.449,23.137,9.712c6.54,6.574,10.114,15.388,10.063,24.819l-0.259,48.43
			c-0.044,8.314-2.148,16.542-6.081,23.796l-59.461,109.639c-0.659,1.214-0.996,2.576-0.982,3.957l0.339,32.619l-153.668-0.822
			l1.086-21.757c0.09-1.805-0.425-3.589-1.463-5.07l-38.926-55.5c-5.161-8.133-8.568-17.514-9.854-27.143
			c-0.595-4.447-4.683-7.572-9.127-6.976c-4.447,0.595-7.57,4.681-6.976,9.127c1.605,12.016,5.878,23.73,12.356,33.878
			c0.064,0.1,0.129,0.197,0.197,0.294l37.429,53.364l-0.983,19.695l-21.349-0.114c-10.782,0-19.599,8.772-19.657,19.553
			l-0.144,26.845c-0.028,5.251,1.991,10.197,5.683,13.931c3.308,3.344,7.605,5.341,12.239,5.744l-8.813,99.911
			c-0.583,6.61,1.645,13.215,6.114,18.12c4.468,4.906,10.836,7.74,17.472,7.776l204.594,1.095c0.015,0,0.121,0.002,0.131,0
			c6.497,0,12.79-2.703,17.264-7.418c4.474-4.716,6.845-11.144,6.504-17.636l-5.323-101.38c8.021-2.447,13.906-9.901,13.952-18.7
			l0.143-26.844c0.028-5.251-1.99-10.199-5.683-13.932c-3.693-3.732-8.619-5.803-13.87-5.831l-23.078-0.123l-0.32-30.769
			l58.456-107.789c5.205-9.597,7.988-20.475,8.047-31.454l0.259-48.43C408.127,87.906,402.873,74.992,393.262,65.329z
			 M159.235,99.904c-0.015,10.756-8.778,19.52-19.5,19.537l-0.172-0.001c-7.748-0.041-14.82-4.806-17.873-11.928
			c-0.076-0.34-0.166-0.677-0.286-1.006c-0.768-2.115-1.159-4.338-1.161-6.608L120.19,52.82c-0.012-10.709,8.691-19.435,19.4-19.45
			c0.01,0,0.019,0,0.028,0c9.343,0,17.469,6.837,19.109,15.979l0.543,49.834C159.248,99.42,159.235,99.661,159.235,99.904z
			 M198.617,117.463l-0.199-0.001c-10.945-0.057-20.438-7.729-22.902-18.342l-0.551-50.632l-0.008-7.015
			c-0.015-12.972,10.526-23.541,23.499-23.56c0.012,0,0.024,0,0.036,0c12.383,0,22.658,9.63,23.47,21.961l0.024,57.083
			C220.417,108.652,210.427,117.445,198.617,117.463z M268.855,54.196c-0.065,0.01-0.127,0.028-0.192,0.039
			c-0.157,0.028-0.313,0.06-0.47,0.097c-0.128,0.03-0.253,0.066-0.379,0.103c-0.123,0.037-0.247,0.074-0.37,0.116
			c-0.154,0.053-0.304,0.112-0.454,0.173c-0.06,0.025-0.119,0.042-0.179,0.068c-0.048,0.021-0.093,0.047-0.141,0.068
			c-0.094,0.043-0.187,0.089-0.279,0.135c-2.959,1.354-5.724,3.109-8.214,5.246c-0.002,0.001-0.003,0.003-0.005,0.005
			c-0.859,0.738-1.686,1.521-2.461,2.326c0,0,0,0-0.001,0c-0.001,0.001-0.002,0.002-0.003,0.003
			c-0.002,0.002-0.003,0.004-0.005,0.005c-6.469,6.731-10.03,15.632-10.027,25.064c0,0.017,0,0.035,0,0.051l0.001,0.178l0.063,9.699
			c0.005,0.798,0.042,1.618,0.115,2.58c0.001,0.012,0.003,0.023,0.004,0.035c0.001,0.013,0,0.025,0.001,0.038l0.04,0.487
			c0,0.002,0.001,0.004,0.001,0.007c0.08,0.869,0.181,1.677,0.309,2.468c0,0.001,0,0.001,0,0.001c0,0.001,0,0.002,0,0.003
			l0.069,0.387c0.001,0.004,0.002,0.009,0.003,0.013c0.002,0.015,0.007,0.035,0.01,0.05c0.001,0.008,0.001,0.014,0.002,0.022
			c0.009,0.048,0.021,0.094,0.029,0.142c0.01,0.052,0.019,0.096,0.03,0.148c0.106,0.582,0.22,1.16,0.353,1.731
			c0.002,0.008,0.004,0.015,0.005,0.023c0.003,0.014,0.008,0.033,0.012,0.048c0,0,0,0,0,0.001c0.004,0.019,0.009,0.037,0.01,0.041
			c0,0.001,0.001,0.003,0.001,0.004c0.002,0.009,0.003,0.017,0.005,0.026l0.084,0.36c0.005,0.021,0.011,0.041,0.015,0.062
			c0.182,0.726,0.395,1.47,0.634,2.215c0.01,0.031,0.021,0.063,0.03,0.093l0.001,0.002l0.062,0.187
			c0.009,0.028,0.018,0.057,0.028,0.086l0.005,0.016c0,0.001,0.001,0.002,0.001,0.003l0.038,0.109l0.012,0.036
			c0.005,0.017,0.012,0.035,0.017,0.052c0.109,0.321,0.222,0.639,0.34,0.956c0.001,0.001,0.001,0.003,0.001,0.004
			c0.118,0.32,0.255,0.634,0.382,0.95c0.079,0.195,0.153,0.391,0.235,0.585c0.3,0.708,0.615,1.408,0.957,2.089l0.001,0.002
			c0.001,0.001,0.001,0.002,0.001,0.004c0.005,0.01,0.012,0.019,0.017,0.029c0.008,0.014,0.013,0.028,0.019,0.042
			c0.001,0.003,0.002,0.005,0.003,0.009l0.066,0.129l0.073,0.144c0.002,0.004,0.004,0.008,0.006,0.011l0.007,0.012
			c0.001,0.001,0.002,0.003,0.003,0.004c0.139,0.266,0.275,0.516,0.412,0.766c-6.414-3.581-11.017-10.056-11.959-17.787
			l-0.024-57.072c0.949-12.149,11.194-21.656,23.411-21.675c6.253-0.011,12.202,2.43,16.653,6.871
			c4.451,4.441,6.908,10.349,6.914,16.637l0.013,10.63C275.024,53.265,269.397,54.113,268.855,54.196z M301.465,51.275
			l-0.013-11.469c-0.014-12.972,10.528-23.542,23.498-23.56c0.013,0,0.024,0,0.036,0c6.274,0,12.175,2.439,16.619,6.871
			c4.451,4.441,6.908,10.349,6.915,16.636l0.012,10.763C329.732,50.196,313.918,50.616,301.465,51.275z M357.181,493.397
			c-1.442,1.518-3.387,2.355-5.479,2.355c-0.001,0-0.001,0-0.001,0l-0.001,8.123l-0.042-8.123l-204.594-1.095
			c-2.138-0.012-4.109-0.888-5.549-2.469c-1.439-1.581-2.129-3.624-1.941-5.753l8.924-101.172l205.421,1.099l5.327,101.435
			C359.355,489.889,358.622,491.879,357.181,493.397z M364.602,336.503c1.229,0.008,2.035,0.638,2.407,1.013
			c0.371,0.376,0.993,1.188,0.986,2.417l-0.143,26.845c-0.01,1.872-1.54,3.394-3.41,3.393v0.495
			c-0.007-0.002-0.013-0.004-0.019-0.007l-0.001-0.488l-2.747-0.015c0,0-0.001,0-0.002,0l-87.738-0.47l-140.013-0.75
			c-1.229-0.006-2.035-0.637-2.407-1.012c-0.371-0.376-0.993-1.188-0.987-2.417l0.144-26.845c0.01-1.872,1.54-3.393,3.43-3.393
			l29.008,0.155c0.001,0,0.002,0,0.003,0l72.974,0.391L364.602,336.503z"/>
</svg>